<svg width="46" height="51" viewBox="0 0 46 51" fill="none" xmlns="http://www.w3.org/2000/svg">
<path d="M43.4611 0.880371H2.53895C1.13658 0.880371 0 2.1104 0 3.62805V47.9151C0 49.4321 1.13658 50.6621 2.53895 50.6621H24.5698V31.3841H18.5751V23.8712H24.5698V18.3303C24.5698 11.9001 28.1986 8.39949 33.4989 8.39949C36.0378 8.39949 38.2196 8.60346 38.8559 8.69541V15.4153L35.1798 15.4173C32.2971 15.4173 31.7394 16.8997 31.7394 19.0749V23.8719H38.6138L37.7187 31.3848H31.7394V50.6621H43.4617C44.8634 50.6621 46 49.4321 46 47.9144V3.62805C46 2.1104 44.8634 0.880371 43.4611 0.880371V0.880371Z" fill="white"/>
</svg>
