<svg width="34" height="51" viewBox="0 0 34 51" fill="none" xmlns="http://www.w3.org/2000/svg">
<path d="M16.7187 0C7.48517 0 0 7.48517 0 16.7187C0 19.6884 0.797482 22.4657 2.15504 24.8816C2.38053 25.2828 2.61689 25.6778 2.87353 26.0582L16.7187 50.1561L30.5639 26.0582C30.777 25.7426 30.9609 25.4082 31.1511 25.078L31.2828 24.8816C32.6391 22.4657 33.4374 19.6884 33.4374 16.7187C33.4374 7.48517 25.9516 0 16.7187 0ZM16.7187 8.35935C21.3351 8.35935 25.078 12.102 25.078 16.7187C25.078 21.3351 21.3351 25.078 16.7187 25.078C12.102 25.078 8.35935 21.3351 8.35935 16.7187C8.35935 12.102 12.102 8.35935 16.7187 8.35935Z" fill="#E74C3C"/>
<path d="M16.7187 6.2695C10.9478 6.2695 6.26953 10.9478 6.26953 16.7187C6.26953 22.4887 10.9478 27.1679 16.7187 27.1679C22.4888 27.1679 27.1679 22.4887 27.1679 16.7187C27.1679 10.9478 22.4888 6.2695 16.7187 6.2695ZM16.7187 10.4492C20.1816 10.4492 22.9882 13.256 22.9882 16.7187C22.9882 20.1813 20.1816 22.9882 16.7187 22.9882C13.2559 22.9882 10.4492 20.1813 10.4492 16.7187C10.4492 13.256 13.2559 10.4492 16.7187 10.4492Z" fill="#C0392B"/>
</svg>
