<svg width="36" height="54" viewBox="0 0 36 54" fill="none" xmlns="http://www.w3.org/2000/svg">
<path d="M17.7636 0C7.95299 0 0 7.95299 0 17.7636C0 20.9189 0.847324 23.8699 2.28973 26.4367C2.52932 26.863 2.78045 27.2827 3.05312 27.6868L17.7636 53.2908L32.4741 27.6868C32.7006 27.3515 32.896 26.9963 33.0981 26.6454L33.2379 26.4367C34.679 23.8699 35.5272 20.9189 35.5272 17.7636C35.5272 7.95299 27.5736 0 17.7636 0ZM17.7636 8.88181C22.6686 8.88181 26.6454 12.8584 26.6454 17.7636C26.6454 22.6686 22.6686 26.6454 17.7636 26.6454C12.8584 26.6454 8.88181 22.6686 8.88181 17.7636C8.88181 12.8584 12.8584 8.88181 17.7636 8.88181Z" fill="#E74C3C"/>
<path d="M17.7636 6.66135C11.6321 6.66135 6.66138 11.6321 6.66138 17.7636C6.66138 23.8943 11.6321 28.8659 17.7636 28.8659C23.8943 28.8659 28.8659 23.8943 28.8659 17.7636C28.8659 11.6321 23.8943 6.66135 17.7636 6.66135ZM17.7636 11.1023C21.4429 11.1023 24.425 14.0845 24.425 17.7636C24.425 21.4427 21.4429 24.425 17.7636 24.425C14.0843 24.425 11.1023 21.4427 11.1023 17.7636C11.1023 14.0845 14.0843 11.1023 17.7636 11.1023Z" fill="#C0392B"/>
</svg>
