<svg width="37" height="55" viewBox="0 0 37 55" fill="none" xmlns="http://www.w3.org/2000/svg">
<path d="M18.2861 0C8.1869 0 0 8.1869 0 18.2861C0 21.5341 0.872245 24.5719 2.35707 27.2142C2.60371 27.6531 2.86223 28.0851 3.14292 28.5011L18.2861 54.8582L33.4292 28.5011C33.6624 28.156 33.8635 27.7903 34.0715 27.4291L34.2155 27.2142C35.699 24.5719 36.5721 21.5341 36.5721 18.2861C36.5721 8.1869 28.3846 0 18.2861 0ZM18.2861 9.14304C23.3353 9.14304 27.4291 13.2366 27.4291 18.2861C27.4291 23.3353 23.3353 27.4291 18.2861 27.4291C13.2366 27.4291 9.14304 23.3353 9.14304 18.2861C9.14304 13.2366 13.2366 9.14304 18.2861 9.14304Z" fill="#E74C3C"/>
<path d="M18.286 6.8573C11.9741 6.8573 6.85718 11.9742 6.85718 18.2861C6.85718 24.5971 11.9741 29.7149 18.286 29.7149C24.597 29.7149 29.7148 24.5971 29.7148 18.2861C29.7148 11.9742 24.597 6.8573 18.286 6.8573ZM18.286 11.4288C22.0735 11.4288 25.1433 14.4988 25.1433 18.2861C25.1433 22.0734 22.0735 25.1434 18.286 25.1434C14.4985 25.1434 11.4287 22.0734 11.4287 18.2861C11.4287 14.4988 14.4985 11.4288 18.286 11.4288Z" fill="#C0392B"/>
</svg>
