<svg width="49" height="50" viewBox="0 0 49 50" fill="none" xmlns="http://www.w3.org/2000/svg">
<path d="M21.2266 38.7679C20.7529 39.4276 20.3044 39.7528 19.8757 39.7528C19.5899 39.7528 19.4272 39.5879 19.3755 39.2607C19.3551 39.193 19.3551 38.9362 19.3551 38.4427V29.8876H17.2195V39.0756C17.2195 39.897 17.2903 40.4508 17.408 40.8028C17.621 41.3914 18.096 41.667 18.7848 41.667C19.5701 41.667 20.3773 41.1997 21.2259 40.2396V41.5074H23.3649V29.8882H21.2266V38.7679Z" fill="white"/>
<path d="M9.45764 28.1082H11.9716V41.5075H14.3481V28.1082H16.9084V25.9131H9.45764V28.1082Z" fill="white"/>
<path d="M24.0107 17.9493C24.7069 17.9493 25.0403 17.4062 25.0403 16.3194V11.3794C25.0403 10.2939 24.7069 9.75281 24.0107 9.75281C23.3138 9.75281 22.9796 10.2939 22.9796 11.3794V16.3194C22.9803 17.4055 23.3138 17.9493 24.0107 17.9493Z" fill="white"/>
<path d="M29.5593 29.7461C28.7739 29.7461 28.0416 30.1699 27.3522 31.0066V25.9131H25.2146V41.5075H27.3522V40.3797C28.0654 41.2507 28.7998 41.667 29.5593 41.667C30.4106 41.667 30.9823 41.2259 31.2681 40.3616C31.4104 39.8688 31.4832 39.0951 31.4832 38.0204V33.3935C31.4832 32.2939 31.4104 31.5256 31.2681 31.0582C30.9816 30.1873 30.4106 29.7461 29.5593 29.7461ZM29.3463 38.1853C29.3463 39.2346 29.0325 39.7522 28.4166 39.7522C28.0654 39.7522 27.7088 39.5872 27.3515 39.2353V32.1524C27.7088 31.8058 28.0648 31.6409 28.4166 31.6409C29.0332 31.6409 29.3463 32.1786 29.3463 33.2265V38.1853Z" fill="white"/>
<path d="M36.3655 29.7461C35.2752 29.7461 34.4232 30.1423 33.8066 30.9382C33.352 31.5248 33.1458 32.4327 33.1458 33.6737V37.7448C33.1458 38.9784 33.3785 39.8963 33.8324 40.4762C34.4497 41.2694 35.3004 41.6663 36.4192 41.6663C37.5353 41.6663 38.4112 41.25 39.0033 40.4078C39.2619 40.0331 39.4307 39.6113 39.5021 39.1454C39.5212 38.9342 39.5477 38.4662 39.5477 37.789V37.4806H37.3666C37.3666 38.3254 37.34 38.7927 37.3203 38.9073C37.1985 39.4699 36.8908 39.7515 36.3655 39.7515C35.6318 39.7515 35.2752 39.2151 35.2752 38.1397V36.08H39.5484V33.673C39.5484 32.4313 39.334 31.5242 38.8869 30.9375C38.2887 30.1417 37.438 29.7461 36.3655 29.7461ZM37.4115 34.3281H35.2752V33.2533C35.2752 32.1792 35.6318 31.6415 36.3464 31.6415C37.0535 31.6415 37.4115 32.1792 37.4115 33.2533V34.3281Z" fill="white"/>
<path d="M44.2361 0.959595H4.76389C2.14375 0.959595 0 3.07156 0 5.65286V44.5399C0 47.1212 2.14375 49.2332 4.76389 49.2332H44.2361C46.8563 49.2332 49 47.1212 49 44.5399V5.65286C49 3.07156 46.8563 0.959595 44.2361 0.959595ZM28.9781 7.97938H31.1307V16.623C31.1307 17.1232 31.1307 17.3827 31.1572 17.4511C31.2048 17.7809 31.3736 17.9492 31.6635 17.9492C32.095 17.9492 32.5489 17.6193 33.0274 16.9529V7.97938H35.1874V19.7192H33.0274V18.4387C32.1678 19.4102 31.3477 19.8822 30.5603 19.8822C29.8648 19.8822 29.385 19.6039 29.1693 19.0085C29.0502 18.6539 28.9781 18.0913 28.9781 17.2627V7.97938ZM20.8202 11.8064C20.8202 10.552 21.0373 9.63409 21.4967 9.04072C22.0942 8.23885 22.9354 7.83724 24.0107 7.83724C25.0928 7.83724 25.9326 8.23885 26.5308 9.04072C26.9827 9.63409 27.2011 10.552 27.2011 11.8064V15.9197C27.2011 17.1668 26.9833 18.092 26.5308 18.6814C25.9326 19.4812 25.0934 19.8828 24.0107 19.8828C22.9347 19.8828 22.0936 19.4812 21.4967 18.6814C21.0373 18.092 20.8202 17.1668 20.8202 15.9197V11.8064ZM15.045 3.96462L16.7458 10.151L18.3784 3.96462H20.7998L17.9197 13.3391V19.7192H15.5242V13.3391C15.3077 12.2073 14.8286 10.5513 14.061 8.35417C13.556 6.89255 13.0299 5.42423 12.5256 3.96462H15.045ZM41.5636 42.2053C41.1321 44.0578 39.5927 45.4242 37.7416 45.6274C33.3561 46.1101 28.9182 46.1128 24.5 46.1101C20.0812 46.1128 15.6433 46.1101 11.2584 45.6274C9.40664 45.4236 7.86995 44.0572 7.43779 42.2053C6.82189 39.5664 6.82189 36.6861 6.82189 33.9707C6.82189 31.2526 6.8287 28.3743 7.44528 25.7347C7.87675 23.8828 9.41413 22.5171 11.2659 22.3133C15.6507 21.8292 20.0886 21.8279 24.5075 21.8292C28.9257 21.8279 33.3636 21.8292 37.7491 22.3133C39.5995 22.5171 41.1382 23.8828 41.5704 25.7347C42.1863 28.375 42.1829 31.2526 42.1829 33.9707C42.1836 36.6861 42.1802 39.5664 41.5636 42.2053Z" fill="white"/>
</svg>
