<svg width="54" height="44" viewBox="0 0 54 44" fill="none" xmlns="http://www.w3.org/2000/svg">
<path d="M52.2075 0.959473H1.79252C0.803688 0.959473 0 1.78628 0 2.80267V6.51067C0 6.68151 0.180234 6.87758 0.327507 6.95687L26.8268 22.5148C26.8955 22.5559 26.9726 22.5746 27.0498 22.5746C27.1283 22.5746 27.2076 22.5537 27.277 22.5112L52.9754 6.97201C53.1199 6.88912 53.5028 6.66998 53.6465 6.56906C53.8205 6.44724 54 6.33695 54 6.11854V2.80194C54 1.78628 53.1963 0.959473 52.2075 0.959473V0.959473Z" fill="white"/>
<path d="M53.7763 12.1016C53.6361 12.0179 53.4649 12.0215 53.324 12.1044L38.7812 20.8994C38.6647 20.9686 38.5841 21.0912 38.5645 21.2296C38.5469 21.3672 38.589 21.5078 38.6795 21.6094L53.2244 37.7253C53.3107 37.8212 53.4285 37.8724 53.5519 37.8724C53.6073 37.8724 53.6634 37.8615 53.716 37.8414C53.8878 37.7714 54 37.602 54 37.4117V12.5016C54 12.3358 53.9152 12.1837 53.7763 12.1016V12.1016Z" fill="white"/>
<path d="M34.5902 23.8527C34.4472 23.6934 34.2172 23.6581 34.0355 23.7677L28.2063 27.2933C27.5219 27.7071 26.6452 27.7107 25.9566 27.3084L20.8266 24.296C20.6568 24.1973 20.4429 24.2211 20.2999 24.358L0.819205 42.9312C0.715412 43.0307 0.663516 43.1742 0.678945 43.3191C0.694374 43.4639 0.776425 43.5937 0.899152 43.6665C1.20211 43.8496 1.49456 43.9368 1.79191 43.9368H51.6914C51.8702 43.9368 52.0315 43.828 52.1017 43.6593C52.1732 43.4921 52.1409 43.2967 52.0189 43.1626L34.5902 23.8527Z" fill="white"/>
<path d="M16.0135 22.1609C16.1186 22.0622 16.1712 21.9166 16.1558 21.7717C16.1404 21.6261 16.0562 21.497 15.9328 21.4235L0.668338 12.462C0.532286 12.3813 0.360468 12.3827 0.22161 12.4649C0.0841558 12.5471 0 12.6992 0 12.8628V36.3766C0 36.559 0.105195 36.7248 0.267896 36.7976C0.325403 36.8243 0.386416 36.8373 0.44813 36.8373C0.558234 36.8373 0.668338 36.7947 0.752493 36.714L16.0135 22.1609Z" fill="white"/>
</svg>
