<svg width="54" height="44" viewBox="0 0 54 44" fill="none" xmlns="http://www.w3.org/2000/svg">
<path d="M52.2075 0.959595H1.79252C0.803688 0.959595 0 1.7864 0 2.80279V6.5108C0 6.68163 0.180234 6.8777 0.327507 6.957L26.8268 22.5149C26.8955 22.556 26.9726 22.5747 27.0498 22.5747C27.1283 22.5747 27.2076 22.5538 27.277 22.5113L52.9754 6.97213C53.1199 6.88924 53.5028 6.6701 53.6465 6.56918C53.8205 6.44736 54 6.33707 54 6.11866V2.80207C54 1.7864 53.1963 0.959595 52.2075 0.959595Z" fill="white"/>
<path d="M53.7763 12.1017C53.6361 12.0181 53.4649 12.0217 53.324 12.1046L38.7812 20.8995C38.6647 20.9687 38.5841 21.0913 38.5645 21.2297C38.5469 21.3674 38.589 21.5079 38.6795 21.6096L53.2244 37.7254C53.3107 37.8213 53.4285 37.8725 53.5519 37.8725C53.6073 37.8725 53.6634 37.8617 53.716 37.8415C53.8878 37.7716 54 37.6022 54 37.4119V12.5017C54 12.3359 53.9152 12.1838 53.7763 12.1017Z" fill="white"/>
<path d="M34.5902 23.8528C34.4472 23.6935 34.2172 23.6582 34.0355 23.7678L28.2063 27.2934C27.5219 27.7072 26.6452 27.7108 25.9566 27.3086L20.8266 24.2962C20.6568 24.1974 20.4429 24.2212 20.2999 24.3582L0.819205 42.9314C0.715412 43.0308 0.663516 43.1743 0.678945 43.3192C0.694374 43.4641 0.776425 43.5938 0.899152 43.6666C1.20211 43.8497 1.49456 43.9369 1.79191 43.9369H51.6914C51.8702 43.9369 52.0315 43.8281 52.1017 43.6594C52.1732 43.4922 52.1409 43.2968 52.0189 43.1628L34.5902 23.8528Z" fill="white"/>
<path d="M16.0135 22.161C16.1186 22.0623 16.1712 21.9167 16.1558 21.7718C16.1404 21.6262 16.0562 21.4972 15.9328 21.4236L0.668338 12.4621C0.532286 12.3814 0.360468 12.3828 0.22161 12.465C0.0841558 12.5472 0 12.6993 0 12.8629V36.3768C0 36.5591 0.105195 36.7249 0.267896 36.7977C0.325403 36.8244 0.386416 36.8374 0.44813 36.8374C0.558234 36.8374 0.668338 36.7949 0.752494 36.7141L16.0135 22.161Z" fill="white"/>
</svg>
