<svg width="49" height="50" viewBox="0 0 49 50" fill="none" xmlns="http://www.w3.org/2000/svg">
<path d="M21.2266 38.7678C20.7529 39.4275 20.3044 39.7527 19.8757 39.7527C19.5899 39.7527 19.4272 39.5878 19.3755 39.2606C19.3551 39.1929 19.3551 38.9361 19.3551 38.4426V29.8875H17.2195V39.0755C17.2195 39.8968 17.2903 40.4507 17.408 40.8026C17.621 41.3913 18.096 41.6669 18.7848 41.6669C19.5701 41.6669 20.3773 41.1996 21.2259 40.2395V41.5073H23.3649V29.8881H21.2266V38.7678Z" fill="white"/>
<path d="M9.45764 28.1079H11.9716V41.5072H14.3481V28.1079H16.9084V25.9128H9.45764V28.1079Z" fill="white"/>
<path d="M24.0107 17.9491C24.7069 17.9491 25.0403 17.4061 25.0403 16.3192V11.3792C25.0403 10.2938 24.7069 9.75269 24.0107 9.75269C23.3138 9.75269 22.9796 10.2938 22.9796 11.3792V16.3192C22.9803 17.4054 23.3138 17.9491 24.0107 17.9491Z" fill="white"/>
<path d="M29.5593 29.7459C28.7739 29.7459 28.0416 30.1696 27.3522 31.0064V25.9128H25.2146V41.5072H27.3522V40.3795C28.0654 41.2504 28.7998 41.6668 29.5593 41.6668C30.4106 41.6668 30.9823 41.2256 31.2681 40.3614C31.4104 39.8686 31.4832 39.0949 31.4832 38.0201V33.3932C31.4832 32.2937 31.4104 31.5253 31.2681 31.058C30.9816 30.1871 30.4106 29.7459 29.5593 29.7459ZM29.3463 38.1851C29.3463 39.2343 29.0325 39.7519 28.4166 39.7519C28.0654 39.7519 27.7088 39.587 27.3515 39.235V32.1522C27.7088 31.8056 28.0648 31.6406 28.4166 31.6406C29.0332 31.6406 29.3463 32.1784 29.3463 33.2263V38.1851Z" fill="white"/>
<path d="M36.3655 29.7458C35.2752 29.7458 34.4232 30.1421 33.8066 30.9379C33.352 31.5246 33.1458 32.4324 33.1458 33.6734V37.7445C33.1458 38.9782 33.3785 39.896 33.8324 40.476C34.4497 41.2692 35.3004 41.6661 36.4192 41.6661C37.5353 41.6661 38.4112 41.2497 39.0033 40.4076C39.2619 40.0328 39.4307 39.6111 39.5021 39.1451C39.5212 38.9339 39.5477 38.4659 39.5477 37.7888V37.4803H37.3666C37.3666 38.3251 37.34 38.7924 37.3203 38.9071C37.1985 39.4696 36.8908 39.7512 36.3655 39.7512C35.6318 39.7512 35.2752 39.2148 35.2752 38.1394V36.0797H39.5484V33.6728C39.5484 32.4311 39.334 31.5239 38.8869 30.9373C38.2887 30.1414 37.438 29.7458 36.3655 29.7458V29.7458ZM37.4115 34.3278H35.2752V33.2531C35.2752 32.179 35.6318 31.6413 36.3464 31.6413C37.0535 31.6413 37.4115 32.179 37.4115 33.2531V34.3278Z" fill="white"/>
<path d="M44.2361 0.959473H4.76389C2.14375 0.959473 0 3.07144 0 5.65274V44.5398C0 47.1211 2.14375 49.233 4.76389 49.233H44.2361C46.8563 49.233 49 47.1211 49 44.5398V5.65274C49 3.07144 46.8563 0.959473 44.2361 0.959473ZM28.9781 7.97925H31.1307V16.6229C31.1307 17.1231 31.1307 17.3825 31.1572 17.4509C31.2048 17.7808 31.3736 17.9491 31.6635 17.9491C32.095 17.9491 32.5489 17.6192 33.0274 16.9528V7.97925H35.1874V19.7191H33.0274V18.4385C32.1678 19.41 31.3478 19.882 30.5603 19.882C29.8648 19.882 29.385 19.6038 29.1693 19.0084C29.0502 18.6537 28.9781 18.0912 28.9781 17.2625V7.97925ZM20.8202 11.8063C20.8202 10.5518 21.0373 9.63396 21.4967 9.0406C22.0942 8.23872 22.9354 7.83712 24.0107 7.83712C25.0928 7.83712 25.9326 8.23872 26.5308 9.0406C26.9827 9.63396 27.2011 10.5518 27.2011 11.8063V15.9196C27.2011 17.1667 26.9833 18.0919 26.5308 18.6812C25.9326 19.4811 25.0934 19.8827 24.0107 19.8827C22.9347 19.8827 22.0936 19.4811 21.4967 18.6812C21.0373 18.0919 20.8202 17.1667 20.8202 15.9196V11.8063ZM15.045 3.9645L16.7457 10.1509L18.3784 3.9645H20.7998L17.9197 13.339V19.7191H15.5242V13.339C15.3077 12.2072 14.8286 10.5512 14.061 8.35404C13.556 6.89243 13.0299 5.42411 12.5256 3.9645H15.045ZM41.5636 42.2052C41.1321 44.0577 39.5927 45.4241 37.7416 45.6273C33.3561 46.11 28.9182 46.1127 24.5 46.11C20.0812 46.1127 15.6433 46.11 11.2584 45.6273C9.40664 45.4235 7.86995 44.057 7.43779 42.2052C6.82189 39.5663 6.82189 36.6859 6.82189 33.9705C6.82189 31.2525 6.8287 28.3742 7.44528 25.7345C7.87675 23.8827 9.41413 22.517 11.2659 22.3132C15.6507 21.8291 20.0886 21.8277 24.5075 21.8291C28.9257 21.8277 33.3636 21.8291 37.7491 22.3132C39.5995 22.517 41.1382 23.8827 41.5704 25.7345C42.1863 28.3748 42.1829 31.2525 42.1829 33.9705C42.1836 36.6859 42.1802 39.5663 41.5636 42.2052V42.2052Z" fill="white"/>
</svg>
