<svg width="37" height="56" viewBox="0 0 37 56" fill="none" xmlns="http://www.w3.org/2000/svg">
<path d="M18.4602 0C8.26487 0 0 8.26487 0 18.4602C0 21.7392 0.880553 24.8059 2.37952 27.4734C2.62851 27.9165 2.88949 28.3526 3.17285 28.7726L18.4602 55.3807L33.7476 28.7726C33.983 28.4241 34.186 28.0549 34.396 27.6903L34.5414 27.4734C36.039 24.8059 36.9205 21.7392 36.9205 18.4602C36.9205 8.26487 28.6549 0 18.4602 0ZM18.4602 9.23011C23.5576 9.23011 27.6903 13.3627 27.6903 18.4602C27.6903 23.5576 23.5576 27.6903 18.4602 27.6903C13.3627 27.6903 9.23011 23.5576 9.23011 18.4602C9.23011 13.3627 13.3627 9.23011 18.4602 9.23011Z" fill="#E74C3C"/>
<path d="M18.46 6.92255C12.088 6.92255 6.92236 12.0882 6.92236 18.4602C6.92236 24.8313 12.088 29.9978 18.46 29.9978C24.8311 29.9978 29.9976 24.8313 29.9976 18.4602C29.9976 12.0882 24.8311 6.92255 18.46 6.92255ZM18.46 11.5376C22.2836 11.5376 25.3826 14.6368 25.3826 18.4602C25.3826 22.2835 22.2836 25.3828 18.46 25.3828C14.6364 25.3828 11.5374 22.2835 11.5374 18.4602C11.5374 14.6368 14.6364 11.5376 18.46 11.5376Z" fill="#C0392B"/>
</svg>
