<svg width="35" height="52" viewBox="0 0 35 52" fill="none" xmlns="http://www.w3.org/2000/svg">
<path d="M17.2412 0C7.71908 0 0 7.71908 0 17.2412C0 20.3036 0.822403 23.1678 2.22238 25.6592C2.45492 26.0729 2.69867 26.4803 2.96332 26.8725L17.2412 51.7235L31.519 26.8725C31.7388 26.5471 31.9285 26.2022 32.1246 25.8617L32.2604 25.6592C33.659 23.1678 34.4823 20.3036 34.4823 17.2412C34.4823 7.71908 26.7626 0 17.2412 0ZM17.2412 8.62058C22.0019 8.62058 25.8617 12.4802 25.8617 17.2412C25.8617 22.0019 22.0019 25.8617 17.2412 25.8617C12.4802 25.8617 8.62058 22.0019 8.62058 17.2412C8.62058 12.4802 12.4802 8.62058 17.2412 8.62058Z" fill="#E74C3C"/>
<path d="M17.2413 6.46539C11.2901 6.46539 6.46558 11.2899 6.46558 17.2411C6.46558 23.1915 11.2901 28.0168 17.2413 28.0168C23.1917 28.0168 28.017 23.1915 28.017 17.2411C28.017 11.2899 23.1917 6.46539 17.2413 6.46539ZM17.2413 10.7757C20.8124 10.7757 23.7067 13.6703 23.7067 17.2411C23.7067 20.812 20.8124 23.7065 17.2413 23.7065C13.6702 23.7065 10.7759 20.812 10.7759 17.2411C10.7759 13.6703 13.6702 10.7757 17.2413 10.7757Z" fill="#C0392B"/>
</svg>
