<svg width="113" height="125" viewBox="0 0 113 125" fill="none" xmlns="http://www.w3.org/2000/svg">
<path d="M33.855 11.2851L78.9955 16.9277V124.136L33.855 118.494V11.2851Z" fill="#ECF0F1"/>
<path d="M0 16.9277L33.8554 11.2851V118.494L0 124.136V16.9277Z" fill="#BDC3C7"/>
<path d="M78.9956 16.9277L112.851 11.2851V118.494L78.9956 124.136V16.9277Z" fill="#BDC3C7"/>
<path d="M5.64209 22.5703L33.8549 16.9277V112.851L5.64209 118.494V22.5703Z" fill="#27AE60"/>
<path d="M33.855 16.9277L78.9955 22.5703V118.494L33.855 112.851V16.9277Z" fill="#2ECC71"/>
<path d="M62.0678 5.64258C52.7181 5.64258 45.1401 13.2217 45.1401 22.5703C45.1401 31.9188 52.7181 39.4979 62.0678 39.4979C71.4175 39.4979 78.9955 31.9188 78.9955 22.5703C78.9955 13.2217 71.4175 5.64258 62.0678 5.64258ZM62.0678 16.9277C65.1825 16.9277 67.7104 19.4539 67.7104 22.5703C67.7104 25.6866 65.1825 28.2128 62.0678 28.2128C58.9531 28.2128 56.4253 25.6866 56.4253 22.5703C56.4253 19.4539 58.9531 16.9277 62.0678 16.9277Z" fill="#C0392B"/>
<path d="M107.208 112.851L78.9956 118.494V22.5703L107.208 16.9277V112.851Z" fill="#27AE60"/>
<path d="M20.8067 19.1848L7.7583 22.0061L33.8551 49.6541V33.2912L20.8067 19.1848Z" fill="#F39C12"/>
<path d="M107.208 101.566L78.9956 107.209V73.3533L107.208 56.4256V101.566Z" fill="#F39C12"/>
<path d="M107.208 112.851L78.9956 118.494V84.6384L107.208 67.7107V112.851Z" fill="#2980B9"/>
<path d="M33.855 78.9959L78.9955 73.3533V107.209L33.855 101.566V78.9959Z" fill="#F1C40F"/>
<path d="M33.855 90.281L78.9955 84.6384V118.494L33.855 112.851V90.281Z" fill="#3498DB"/>
<path d="M5.64209 95.9235L33.8549 78.9958V101.566L5.64209 107.209V95.9235Z" fill="#F39C12"/>
<path d="M5.64209 107.209L33.8549 90.281V112.851L5.64209 118.494V107.209Z" fill="#2980B9"/>
<path d="M33.855 49.6586V33.3036L56.4252 82.1665H48.1363L33.855 49.6586Z" fill="#F1C40F"/>
<path d="M62.0683 0C49.6039 0 39.498 10.1566 39.498 22.5702C39.498 26.52 40.5746 29.9057 42.4074 33.2912C42.7115 33.8555 43.0309 34.4193 43.3773 34.9836L62.0683 67.7107L80.7565 34.9836C81.0442 34.4193 81.2925 33.8554 81.552 33.8554L81.727 33.2912C83.5608 29.9057 84.6385 26.52 84.6385 22.5702C84.6385 10.1566 74.5327 0 62.0683 0ZM62.0683 11.2851C68.3033 11.2851 73.3534 16.3634 73.3534 22.5702C73.3534 28.7771 68.3033 33.8554 62.0683 33.8554C55.8333 33.8554 50.7832 28.7771 50.7832 22.5702C50.7832 16.3634 55.8333 11.2851 62.0683 11.2851Z" fill="#E74C3C"/>
</svg>
