<svg width="38" height="57" viewBox="0 0 38 57" fill="none" xmlns="http://www.w3.org/2000/svg">
<path d="M18.8085 0C8.42082 0 0 8.42082 0 18.8085C0 22.1494 0.897167 25.274 2.42442 27.9918C2.6781 28.4432 2.94401 28.8876 3.23272 29.3155L18.8085 56.4256L34.3844 29.3155C34.6242 28.9604 34.8311 28.5843 35.045 28.2128L35.1931 27.9918C36.719 25.274 37.6171 22.1494 37.6171 18.8085C37.6171 8.42082 29.1955 0 18.8085 0ZM18.8085 9.40427C24.002 9.40427 28.2128 13.6148 28.2128 18.8085C28.2128 24.002 24.002 28.2128 18.8085 28.2128C13.6148 28.2128 9.40427 24.002 9.40427 18.8085C9.40427 13.6148 13.6148 9.40427 18.8085 9.40427Z" fill="#E74C3C"/>
<path d="M18.8086 7.05316C12.3163 7.05316 7.05322 12.3163 7.05322 18.8085C7.05322 25.2998 12.3163 30.5638 18.8086 30.5638C25.2999 30.5638 30.5639 25.2998 30.5639 18.8085C30.5639 12.3163 25.2999 7.05316 18.8086 7.05316ZM18.8086 11.7553C22.7043 11.7553 25.8618 14.913 25.8618 18.8085C25.8618 22.704 22.7043 25.8617 18.8086 25.8617C14.9128 25.8617 11.7554 22.704 11.7554 18.8085C11.7554 14.913 14.9128 11.7553 18.8086 11.7553Z" fill="#C0392B"/>
</svg>
