<svg width="48" height="49" viewBox="0 0 48 49" fill="none" xmlns="http://www.w3.org/2000/svg">
<path d="M24 0C19.2533 0 14.6131 1.43176 10.6663 4.11423C6.71954 6.7967 3.6434 10.6094 1.8269 15.0702C0.0103988 19.531 -0.464881 24.4395 0.461164 29.175C1.38721 33.9106 3.67299 38.2605 7.02945 41.6746C10.3859 45.0887 14.6623 47.4138 19.3178 48.3558C23.9734 49.2977 28.799 48.8143 33.1844 46.9665C37.5698 45.1188 41.3181 41.9898 43.9553 37.9752C46.5924 33.9606 48 29.2407 48 24.4124C48 21.2065 47.3792 18.032 46.1731 15.0702C44.967 12.1083 43.1992 9.41713 40.9706 7.15023C38.742 4.88333 36.0962 3.08512 33.1844 1.85828C30.2726 0.631446 27.1517 0 24 0ZM24 43.9423C20.2026 43.9423 16.4905 42.7969 13.3331 40.651C10.1756 38.505 7.71473 35.4548 6.26152 31.8862C4.80832 28.3176 4.4281 24.3907 5.16893 20.6023C5.90977 16.8139 7.73839 13.334 10.4236 10.6027C13.1087 7.87136 16.5298 6.01131 20.2543 5.25775C23.9787 4.50418 27.8392 4.89094 31.3475 6.36911C34.8559 7.84728 37.8545 10.3505 39.9642 13.5622C42.0739 16.7738 43.2 20.5498 43.2 24.4124C43.2 29.5921 41.1772 34.5596 37.5765 38.2222C33.9758 41.8847 29.0922 43.9423 24 43.9423Z" fill="white"/>
<path d="M24.0001 17.0888C25.3256 17.0888 26.4001 15.9958 26.4001 14.6475C26.4001 13.2993 25.3256 12.2063 24.0001 12.2063C22.6746 12.2063 21.6001 13.2993 21.6001 14.6475C21.6001 15.9958 22.6746 17.0888 24.0001 17.0888Z" fill="white"/>
<path d="M24.0001 19.5303C23.3636 19.5303 22.7531 19.7875 22.303 20.2453C21.853 20.7031 21.6001 21.3241 21.6001 21.9715V34.1777C21.6001 34.8252 21.853 35.4461 22.303 35.9039C22.7531 36.3618 23.3636 36.619 24.0001 36.619C24.6366 36.619 25.2471 36.3618 25.6972 35.9039C26.1472 35.4461 26.4001 34.8252 26.4001 34.1777V21.9715C26.4001 21.3241 26.1472 20.7031 25.6972 20.2453C25.2471 19.7875 24.6366 19.5303 24.0001 19.5303Z" fill="white"/>
</svg>
