<svg width="43" height="45" viewBox="0 0 43 45" fill="none" xmlns="http://www.w3.org/2000/svg">
<path d="M21.5 0C17.2477 0 13.0909 1.3054 9.55525 3.75113C6.01959 6.19685 3.26388 9.67306 1.6366 13.7401C0.00931561 17.8072 -0.416456 22.2826 0.413126 26.6002C1.24271 30.9178 3.29038 34.8837 6.29721 37.9966C9.30404 41.1094 13.135 43.2292 17.3056 44.0881C21.4762 44.9469 25.7991 44.5061 29.7277 42.8215C33.6563 41.1368 37.0141 38.284 39.3766 34.6237C41.739 30.9634 43 26.6601 43 22.2579C43 19.3349 42.4439 16.4406 41.3634 13.7401C40.2829 11.0397 38.6993 8.58601 36.7028 6.51918C34.7063 4.45234 32.3362 2.81284 29.7277 1.69428C27.1192 0.575717 24.3234 0 21.5 0ZM21.5 40.0642C18.0982 40.0642 14.7727 39.0198 11.9442 37.0633C9.11567 35.1067 6.91111 32.3257 5.60928 29.072C4.30745 25.8184 3.96684 22.2381 4.6305 18.784C5.29417 15.3299 6.93231 12.1572 9.33777 9.66692C11.7432 7.17666 14.808 5.48078 18.1445 4.79372C21.4809 4.10666 24.9393 4.45928 28.0822 5.807C31.225 7.15471 33.9113 9.43699 35.8013 12.3652C37.6912 15.2935 38.7 18.7361 38.7 22.2579C38.7 26.9804 36.8879 31.5095 33.6622 34.8488C30.4366 38.1881 26.0617 40.0642 21.5 40.0642Z" fill="white"/>
<path d="M21.5002 15.5806C22.6876 15.5806 23.6502 14.5841 23.6502 13.3548C23.6502 12.1255 22.6876 11.129 21.5002 11.129C20.3128 11.129 19.3502 12.1255 19.3502 13.3548C19.3502 14.5841 20.3128 15.5806 21.5002 15.5806Z" fill="white"/>
<path d="M21.5002 17.8064C20.93 17.8064 20.3831 18.0409 19.9799 18.4583C19.5767 18.8757 19.3502 19.4419 19.3502 20.0322V31.1611C19.3502 31.7514 19.5767 32.3176 19.9799 32.735C20.3831 33.1524 20.93 33.3869 21.5002 33.3869C22.0704 33.3869 22.6173 33.1524 23.0205 32.735C23.4237 32.3176 23.6502 31.7514 23.6502 31.1611V20.0322C23.6502 19.4419 23.4237 18.8757 23.0205 18.4583C22.6173 18.0409 22.0704 17.8064 21.5002 17.8064Z" fill="white"/>
</svg>
