<svg width="47" height="49" viewBox="0 0 47 49" fill="none" xmlns="http://www.w3.org/2000/svg">
<path d="M23.5 0C18.8521 0 14.3087 1.43176 10.4441 4.11422C6.57955 6.79669 3.5675 10.6094 1.78884 15.0701C0.0101822 19.5309 -0.455196 24.4394 0.451556 29.175C1.35831 33.9105 3.59647 38.2604 6.883 41.6745C10.1695 45.0886 14.3568 47.4137 18.9154 48.3556C23.4739 49.2976 28.199 48.8141 32.4931 46.9664C36.7871 45.1187 40.4573 41.9897 43.0395 37.9751C45.6217 33.9605 47 29.2407 47 24.4124C47 21.2065 46.3922 18.032 45.2112 15.0701C44.0302 12.1083 42.2992 9.41711 40.117 7.15021C37.9348 4.88332 35.3442 3.08512 32.4931 1.85828C29.6419 0.631444 26.5861 0 23.5 0ZM23.5 43.9422C19.7817 43.9422 16.1469 42.7968 13.0553 40.6509C9.96364 38.5049 7.554 35.4547 6.13107 31.8861C4.70815 28.3175 4.33584 24.3907 5.06125 20.6023C5.78665 16.8138 7.57717 13.3339 10.2064 10.6026C12.8356 7.87134 16.1855 6.0113 19.8323 5.25773C23.4792 4.50417 27.2592 4.89092 30.6945 6.36909C34.1297 7.84727 37.0659 10.3505 39.1316 13.5621C41.1974 16.7738 42.3 20.5497 42.3 24.4124C42.3 29.592 40.3193 34.5595 36.7936 38.2221C33.2679 41.8846 28.4861 43.9422 23.5 43.9422Z" fill="white"/>
<path d="M23.4999 17.0888C24.7978 17.0888 25.8499 15.9958 25.8499 14.6475C25.8499 13.2993 24.7978 12.2063 23.4999 12.2063C22.202 12.2063 21.1499 13.2993 21.1499 14.6475C21.1499 15.9958 22.202 17.0888 23.4999 17.0888Z" fill="white"/>
<path d="M23.4999 19.53C22.8766 19.53 22.2789 19.7872 21.8382 20.2451C21.3975 20.7029 21.1499 21.3238 21.1499 21.9713V34.1774C21.1499 34.8249 21.3975 35.4458 21.8382 35.9037C22.2789 36.3615 22.8766 36.6187 23.4999 36.6187C24.1232 36.6187 24.7209 36.3615 25.1616 35.9037C25.6023 35.4458 25.8499 34.8249 25.8499 34.1774V21.9713C25.8499 21.3238 25.6023 20.7029 25.1616 20.2451C24.7209 19.7872 24.1232 19.53 23.4999 19.53Z" fill="white"/>
</svg>
