<svg width="49" height="49" viewBox="0 0 49 49" fill="none" xmlns="http://www.w3.org/2000/svg">
<path d="M24.5 0C19.6544 0 14.9175 1.43176 10.8885 4.11422C6.85953 6.79669 3.71931 10.6094 1.86496 15.0701C0.0106155 19.5309 -0.474566 24.4394 0.470772 29.175C1.41611 33.9105 3.74951 38.2604 7.17589 41.6745C10.6023 45.0886 14.9678 47.4137 19.7203 48.3556C24.4728 49.2976 29.399 48.8141 33.8758 46.9664C38.3525 45.1187 42.1789 41.9897 44.871 37.9751C47.5631 33.9605 49 29.2407 49 24.4124C49 21.2065 48.3663 18.032 47.1351 15.0701C45.9038 12.1083 44.0992 9.41711 41.8241 7.15021C39.5491 4.88332 36.8482 3.08512 33.8758 1.85828C30.9033 0.631444 27.7174 0 24.5 0ZM24.5 43.9422C20.6235 43.9422 16.834 42.7968 13.6108 40.6509C10.3876 38.5049 7.87545 35.4547 6.39197 31.8861C4.90849 28.3175 4.52035 24.3907 5.27662 20.6023C6.03289 16.8138 7.89961 13.3339 10.6407 10.6026C13.3818 7.87134 16.8742 6.0113 20.6762 5.25773C24.4783 4.50417 28.4192 4.89092 32.0006 6.36909C35.582 7.84727 38.6431 10.3505 40.7968 13.5621C42.9505 16.7738 44.1 20.5497 44.1 24.4124C44.1 29.592 42.035 34.5595 38.3593 38.2221C34.6836 41.8846 29.6982 43.9422 24.5 43.9422Z" fill="white"/>
<path d="M24.5 17.0888C25.8531 17.0888 26.95 15.9958 26.95 14.6475C26.95 13.2993 25.8531 12.2063 24.5 12.2063C23.147 12.2063 22.05 13.2993 22.05 14.6475C22.05 15.9958 23.147 17.0888 24.5 17.0888Z" fill="white"/>
<path d="M24.5 19.53C23.8503 19.53 23.2271 19.7872 22.7676 20.2451C22.3082 20.7029 22.05 21.3238 22.05 21.9713V34.1774C22.05 34.8249 22.3082 35.4458 22.7676 35.9037C23.2271 36.3615 23.8503 36.6187 24.5 36.6187C25.1498 36.6187 25.773 36.3615 26.2325 35.9037C26.6919 35.4458 26.95 34.8249 26.95 34.1774V21.9713C26.95 21.3238 26.6919 20.7029 26.2325 20.2451C25.773 19.7872 25.1498 19.53 24.5 19.53Z" fill="white"/>
</svg>
