<svg width="51" height="49" viewBox="0 0 51 49" fill="none" xmlns="http://www.w3.org/2000/svg">
<path d="M25.5 0C20.4566 0 15.5264 1.43176 11.333 4.11423C7.13952 6.7967 3.87112 10.6094 1.94108 15.0702C0.0110487 19.531 -0.493936 24.4395 0.489987 29.175C1.47391 33.9106 3.90255 38.2605 7.46879 41.6746C11.035 45.0887 15.5787 47.4138 20.5252 48.3557C25.4717 49.2977 30.5989 48.8143 35.2584 46.9665C39.9179 45.1188 43.9005 41.9898 46.7025 37.9752C49.5044 33.9606 51 29.2407 51 24.4124C51 21.2065 50.3404 18.032 49.0589 15.0702C47.7774 12.1083 45.8991 9.41713 43.5312 7.15023C41.1633 4.88333 38.3522 3.08512 35.2584 1.85828C32.1646 0.631446 28.8487 0 25.5 0V0ZM25.5 43.9423C21.4653 43.9423 17.5211 42.7969 14.1664 40.651C10.8116 38.505 8.1969 35.4548 6.65287 31.8862C5.10884 28.3176 4.70485 24.3907 5.49199 20.6023C6.27913 16.8139 8.22204 13.334 11.075 10.6027C13.928 7.87136 17.563 6.01131 21.5202 5.25775C25.4774 4.50418 29.5791 4.89094 33.3067 6.36911C37.0344 7.84728 40.2204 10.3505 42.462 13.5622C44.7036 16.7738 45.9 20.5498 45.9 24.4124C45.9 29.5921 43.7507 34.5596 39.925 38.2222C36.0992 41.8847 30.9104 43.9423 25.5 43.9423V43.9423Z" fill="white"/>
<path d="M25.5002 17.0888C26.9085 17.0888 28.0502 15.9958 28.0502 14.6475C28.0502 13.2993 26.9085 12.2063 25.5002 12.2063C24.0919 12.2063 22.9502 13.2993 22.9502 14.6475C22.9502 15.9958 24.0919 17.0888 25.5002 17.0888Z" fill="white"/>
<path d="M25.5002 19.5303C24.8239 19.5303 24.1753 19.7875 23.6971 20.2453C23.2189 20.7031 22.9502 21.3241 22.9502 21.9715V34.1777C22.9502 34.8252 23.2189 35.4461 23.6971 35.9039C24.1753 36.3618 24.8239 36.619 25.5002 36.619C26.1765 36.619 26.8251 36.3618 27.3033 35.9039C27.7815 35.4461 28.0502 34.8252 28.0502 34.1777V21.9715C28.0502 21.3241 27.7815 20.7031 27.3033 20.2453C26.8251 19.7875 26.1765 19.5303 25.5002 19.5303Z" fill="white"/>
</svg>
