<svg width="14" height="17" viewBox="0 0 14 17" fill="none" xmlns="http://www.w3.org/2000/svg">
<path fill-rule="evenodd" clip-rule="evenodd" d="M8.45465 11.7188C7.61004 12.2906 6.61287 12.6209 5.54478 12.6209C2.49934 12.6209 0.0305176 9.93556 0.0305176 6.62297C0.0305176 3.31038 2.49934 0.625 5.54478 0.625C8.59023 0.625 11.059 3.31038 11.059 6.62297C11.059 8.195 10.503 9.62578 9.59327 10.6953L13.7846 15.2544C14.0718 15.5667 14.0718 16.073 13.7846 16.3854C13.4975 16.6977 13.032 16.6977 12.7449 16.3854L8.45465 11.7188ZM9.58858 6.62297C9.58858 9.0522 7.77811 11.0215 5.54478 11.0215C3.31146 11.0215 1.50099 9.0522 1.50099 6.62297C1.50099 4.19374 3.31146 2.22446 5.54478 2.22446C7.77811 2.22446 9.58858 4.19374 9.58858 6.62297Z" fill="white"/>
</svg>
