<svg width="50" height="37" viewBox="0 0 50 37" fill="none" xmlns="http://www.w3.org/2000/svg">
<path d="M50 5.04771C48.1605 5.77424 46.1839 6.26534 44.1087 6.48573C46.2261 5.35487 47.8533 3.56399 48.6182 1.43126C46.6365 2.47825 44.4405 3.23948 42.1049 3.64787C40.2341 1.87319 37.568 0.762573 34.6175 0.762573C28.9528 0.762573 24.3594 4.85335 24.3594 9.90088C24.3594 10.6164 24.4503 11.3146 24.6257 11.9839C16.1 11.6027 8.54188 7.96424 3.48233 2.43486C2.59925 3.78496 2.09343 5.35544 2.09343 7.02947C2.09343 10.1999 3.90439 12.9962 6.65688 14.6355C4.97578 14.5875 3.39402 14.1762 2.01096 13.4925C2.00966 13.5306 2.00966 13.5682 2.00966 13.6076C2.00966 18.0338 5.54524 21.7272 10.2373 22.5677C9.37691 22.7754 8.4711 22.8876 7.53542 22.8876C6.87376 22.8876 6.23158 22.8309 5.60498 22.7239C6.91012 26.3537 10.6983 28.9966 15.1871 29.0706C11.6762 31.5209 7.25361 32.9827 2.44731 32.9827C1.61942 32.9827 0.803216 32.9399 0 32.8548C4.53943 35.4474 9.93143 36.9595 15.7241 36.9595C34.5922 36.9595 44.9099 23.0357 44.9099 10.9612C44.9099 10.5655 44.8995 10.1704 44.8801 9.77767C46.8858 8.49005 48.6254 6.88023 50 5.04771Z" fill="white"/>
</svg>
