<svg width="14" height="17" viewBox="0 0 14 17" fill="none" xmlns="http://www.w3.org/2000/svg">
<path fill-rule="evenodd" clip-rule="evenodd" d="M8.4544 11.7188C7.60979 12.2906 6.61263 12.6209 5.54454 12.6209C2.49909 12.6209 0.0302734 9.93556 0.0302734 6.62297C0.0302734 3.31038 2.49909 0.625 5.54454 0.625C8.58998 0.625 11.0588 3.31038 11.0588 6.62297C11.0588 8.195 10.5028 9.62578 9.59303 10.6953L13.7844 15.2544C14.0715 15.5667 14.0715 16.073 13.7844 16.3854C13.4973 16.6977 13.0317 16.6977 12.7446 16.3854L8.4544 11.7188ZM9.58833 6.62297C9.58833 9.0522 7.77786 11.0215 5.54454 11.0215C3.31121 11.0215 1.50074 9.0522 1.50074 6.62297C1.50074 4.19374 3.31121 2.22446 5.54454 2.22446C7.77786 2.22446 9.58833 4.19374 9.58833 6.62297Z" fill="white"/>
</svg>
