<svg width="50" height="37" viewBox="0 0 50 37" fill="none" xmlns="http://www.w3.org/2000/svg">
<path d="M50 5.04783C48.1605 5.77436 46.1839 6.26546 44.1087 6.48585C46.2261 5.35499 47.8533 3.56411 48.6182 1.43138C46.6365 2.47837 44.4405 3.23961 42.1049 3.64799C40.2341 1.87331 37.568 0.762695 34.6175 0.762695C28.9528 0.762695 24.3594 4.85347 24.3594 9.901C24.3594 10.6165 24.4503 11.3147 24.6257 11.984C16.1 11.6028 8.54188 7.96436 3.48233 2.43499C2.59925 3.78508 2.09343 5.35557 2.09343 7.02959C2.09343 10.2001 3.90439 12.9963 6.65688 14.6356C4.97578 14.5876 3.39402 14.1763 2.01096 13.4926C2.00966 13.5308 2.00966 13.5684 2.00966 13.6077C2.00966 18.034 5.54524 21.7274 10.2373 22.5678C9.37691 22.7755 8.4711 22.8877 7.53542 22.8877C6.87376 22.8877 6.23158 22.831 5.60498 22.724C6.91012 26.3538 10.6983 28.9967 15.1871 29.0707C11.6762 31.521 7.25361 32.9828 2.44731 32.9828C1.61942 32.9828 0.803216 32.94 0 32.8549C4.53943 35.4475 9.93143 36.9596 15.7241 36.9596C34.5922 36.9596 44.9099 23.0358 44.9099 10.9613C44.9099 10.5656 44.8995 10.1706 44.8801 9.77779C46.8858 8.49017 48.6254 6.88035 50 5.04783Z" fill="white"/>
</svg>
